{
  "accessors": [
    {
      "bufferView": 2,
      "componentType": 5126,
      "count": 559,
      "max": [
        1.0000002384185791,
        1,
        1.0000003576278687
      ],
      "min": [
        -0.99999982118606567,
        -1,
        -1
      ],
      "type": "VEC3"
    },
    {
      "bufferView": 2,
      "byteOffset": 6708,
      "componentType": 5126,
      "count": 559,
      "max": [
        1,
        1,
        1
      ],
      "min": [
        -1,
        -1,
        -1
      ],
      "type": "VEC3"
    },
    {
      "bufferView": 3,
      "componentType": 5126,
      "count": 559,
      "max": [
        1,
        0.049124192446470261,
        1,
        1
      ],
      "min": [
        -1,
        -0.049123633652925491,
        -1,
        1
      ],
      "type": "VEC4"
    },
    {
      "bufferView": 1,
      "componentType": 5126,
      "count": 559,
      "max": [
        1.0000002384185791,
        1
      ],
      "min": [
        0,
        0
      ],
      "type": "VEC2"
    },
    {
      "bufferView": 0,
      "componentType": 5125,
      "count": 2880,
      "max": [
        558
      ],
      "min": [
        0
      ],
      "type": "SCALAR"
    },
    {
      "bufferView": 2,
      "byteOffset": 13416,
      "componentType": 5126,
      "count": 329,
      "max": [
        0.50000011920928955,
        -0.10248649120330811,
        0.50000017881393433
      ],
      "min": [
        -0.49999991059303284,
        -2.5693421363830566,
        -0.5
      ],
      "type": "VEC3"
    },
    {
      "bufferView": 2,
      "byteOffset": 17364,
      "componentType": 5126,
      "count": 329,
      "max": [
        1,
        1,
        1
      ],
      "min": [
        -1,
        -0.023835457861423492,
        -1
      ],
      "type": "VEC3"
    },
    {
      "bufferView": 3,
      "byteOffset": 8944,
      "componentType": 5126,
      "count": 329,
      "max": [
        1,
        0.04740128293633461,
        1,
        1
      ],
      "min": [
        -1,
        -0.047408644109964371,
        -1,
        1
      ],
      "type": "VEC4"
    },
    {
      "bufferView": 1,
      "byteOffset": 4472,
      "componentType": 5126,
      "count": 329,
      "max": [
        1.0000002384185791,
        1
      ],
      "min": [
        0,
        0.4375
      ],
      "type": "VEC2"
    },
    {
      "bufferView": 0,
      "byteOffset": 11520,
      "componentType": 5125,
      "count": 1632,
      "max": [
        328
      ],
      "min": [
        0
      ],
      "type": "SCALAR"
    },
    {
      "bufferView": 2,
      "byteOffset": 21312,
      "componentType": 5126,
      "count": 574,
      "max": [
        1.0526615381240845,
        0.2165396511554718,
        1.0526614189147949
      ],
      "min": [
        -1.0526610612869263,
        -1.2460966110229492,
        -1.0526607036590576
      ],
      "type": "VEC3"
    },
    {
      "bufferView": 2,
      "byteOffset": 28200,
      "componentType": 5126,
      "count": 574,
      "max": [
        0.99790090322494507,
        0.99952399730682373,
        0.99790090322494507
      ],
      "min": [
        -0.99790090322494507,
        -0.81942617893218994,
        -0.99790090322494507
      ],
      "type": "VEC3"
    },
    {
      "bufferView": 3,
      "byteOffset": 14208,
      "componentType": 5126,
      "count": 574,
      "max": [
        1,
        0.048650965094566345,
        0.99999105930328369,
        1
      ],
      "min": [
        -1,
        -0.048650749027729034,
        -1,
        1
      ],
      "type": "VEC4"
    },
    {
      "bufferView": 1,
      "byteOffset": 7104,
      "componentType": 5126,
      "count": 574,
      "max": [
        1.0000001192092896,
        1
      ],
      "min": [
        0,
        0.31249988079071045
      ],
      "type": "VEC2"
    },
    {
      "bufferView": 0,
      "byteOffset": 18048,
      "componentType": 5125,
      "count": 2880,
      "max": [
        573
      ],
      "min": [
        0
      ],
      "type": "SCALAR"
    },
    {
      "bufferView": 2,
      "byteOffset": 35088,
      "componentType": 5126,
      "count": 198,
      "max": [
        0.69263112545013428,
        1.4520223140716553,
        0.69263124465942383
      ],
      "min": [
        -0.6926308274269104,
        0.67649656534194946,
        -0.69263118505477905
      ],
      "type": "VEC3"
    },
    {
      "bufferView": 2,
      "byteOffset": 37464,
      "componentType": 5126,
      "count": 198,
      "max": [
        0.9919428825378418,
        -0.12668284773826599,
        0.9919428825378418
      ],
      "min": [
        -0.9919428825378418,
        -0.80895555019378662,
        -0.9919428825378418
      ],
      "type": "VEC3"
    },
    {
      "bufferView": 3,
      "byteOffset": 23392,
      "componentType": 5126,
      "count": 198,
      "max": [
        1,
        0.048801183700561523,
        0.99992209672927856,
        1
      ],
      "min": [
        -1,
        -0.048801347613334656,
        -1,
        1
      ],
      "type": "VEC4"
    },
    {
      "bufferView": 1,
      "byteOffset": 11696,
      "componentType": 5126,
      "count": 198,
      "max": [
        1.0000001192092896,
        0.43750005960464478
      ],
      "min": [
        0,
        0.18749982118606567
      ],
      "type": "VEC2"
    },
    {
      "bufferView": 0,
      "byteOffset": 29568,
      "componentType": 5125,
      "count": 960,
      "max": [
        197
      ],
      "min": [
        0
      ],
      "type": "SCALAR"
    },
    {
      "bufferView": 2,
      "byteOffset": 39840,
      "componentType": 5126,
      "count": 714,
      "max": [
        0.73521888256072998,
        -0.18629181385040283,
        0.83347338438034058
      ],
      "min": [
        -0.73521882295608521,
        -0.91952615976333618,
        -0.83347350358963013
      ],
      "type": "VEC3"
    },
    {
      "bufferView": 2,
      "byteOffset": 48408,
      "componentType": 5126,
      "count": 714,
      "max": [
        0.99679023027420044,
        0.9814457893371582,
        0.99998950958251953
      ],
      "min": [
        -0.99679023027420044,
        -0.97732776403427124,
        -0.99998950958251953
      ],
      "type": "VEC3"
    },
    {
      "bufferView": 3,
      "byteOffset": 26560,
      "componentType": 5126,
      "count": 714,
      "max": [
        1,
        0.74552386999130249,
        0.94048428535461426,
        1
      ],
      "min": [
        -1,
        -0.79796963930130005,
        -0.94048428535461426,
        1
      ],
      "type": "VEC4"
    },
    {
      "bufferView": 1,
      "byteOffset": 13280,
      "componentType": 5126,
      "count": 714,
      "max": [
        1.0000001192092896,
        1
      ],
      "min": [
        0,
        0
      ],
      "type": "VEC2"
    },
    {
      "bufferView": 0,
      "byteOffset": 33408,
      "componentType": 5125,
      "count": 3240,
      "max": [
        713
      ],
      "min": [
        0
      ],
      "type": "SCALAR"
    },
    {
      "bufferView": 2,
      "byteOffset": 56976,
      "componentType": 5126,
      "count": 359,
      "max": [
        0.39234411716461182,
        1.8408000469207764,
        0.39234420657157898
      ],
      "min": [
        -0.3923439085483551,
        1.3715167045593262,
        -0.39234399795532227
      ],
      "type": "VEC3"
    },
    {
      "bufferView": 2,
      "byteOffset": 61284,
      "componentType": 5126,
      "count": 359,
      "max": [
        1,
        0.035738665610551834,
        1
      ],
      "min": [
        -1,
        -1,
        -1
      ],
      "type": "VEC3"
    },
    {
      "bufferView": 3,
      "byteOffset": 37984,
      "componentType": 5126,
      "count": 359,
      "max": [
        1,
        0.99936121702194214,
        0.99988502264022827,
        1
      ],
      "min": [
        -1,
        -0.99936127662658691,
        -1,
        -1
      ],
      "type": "VEC4"
    },
    {
      "bufferView": 1,
      "byteOffset": 18992,
      "componentType": 5126,
      "count": 359,
      "max": [
        1.0000002384185791,
        0.18750005960464478
      ],
      "min": [
        5.9604644775390625e-08,
        0
      ],
      "type": "VEC2"
    },
    {
      "bufferView": 0,
      "byteOffset": 46368,
      "componentType": 5125,
      "count": 1440,
      "max": [
        358
      ],
      "min": [
        0
      ],
      "type": "SCALAR"
    }
  ],
  "asset": {
    "extras": {
      "author": "tab1bit0 (https://sketchfab.com/tab1bit0)",
      "license": "CC-BY-4.0 (http://creativecommons.org/licenses/by/4.0/)",
      "source": "https://sketchfab.com/3d-models/ufo-8288a85fdf9d48f6a9a9ec6df27d5aa0",
      "title": "ufo"
    },
    "generator": "Sketchfab-6.87.0",
    "version": "2.0"
  },
  "bufferViews": [
    {
      "buffer": 0,
      "byteLength": 52128,
      "byteOffset": 0,
      "name": "floatBufferViews",
      "target": 34963
    },
    {
      "buffer": 0,
      "byteLength": 21864,
      "byteOffset": 52128,
      "byteStride": 8,
      "name": "floatBufferViews",
      "target": 34962
    },
    {
      "buffer": 0,
      "byteLength": 65592,
      "byteOffset": 73992,
      "byteStride": 12,
      "name": "floatBufferViews",
      "target": 34962
    },
    {
      "buffer": 0,
      "byteLength": 43728,
      "byteOffset": 139584,
      "byteStride": 16,
      "name": "floatBufferViews",
      "target": 34962
    }
  ],
  "buffers": [
    {
      "byteLength": 183312,
      "uri": "scene.bin"
    }
  ],
  "extensionsRequired": [
    "KHR_materials_pbrSpecularGlossiness"
  ],
  "extensionsUsed": [
    "KHR_materials_pbrSpecularGlossiness"
  ],
  "materials": [
    {
      "doubleSided": true,
      "emissiveFactor": [
        0,
        0,
        0
      ],
      "extensions": {
        "KHR_materials_pbrSpecularGlossiness": {
          "diffuseFactor": [
            0.73617502705792681,
            0.73617502705792681,
            0.73617502705792681,
            1
          ],
          "glossinessFactor": 0.59090900000000002,
          "specularFactor": [
            0.72732469512195119,
            0.72732469512195119,
            0.72732469512195119
          ]
        }
      },
      "name": "Body"
    },
    {
      "doubleSided": true,
      "emissiveFactor": [
        0,
        0,
        0
      ],
      "extensions": {
        "KHR_materials_pbrSpecularGlossiness": {
          "diffuseFactor": [
            0.042511300000000002,
            0.399391,
            0.80000000000000004,
            1
          ],
          "glossinessFactor": 0.83181799999999995,
          "specularFactor": [
            0.38181799999999999,
            0.38181799999999999,
            0.38181799999999999
          ]
        }
      },
      "name": "Glass"
    },
    {
      "doubleSided": true,
      "emissiveFactor": [
        0,
        0,
        0
      ],
      "extensions": {
        "KHR_materials_pbrSpecularGlossiness": {
          "diffuseFactor": [
            0.40170899999999998,
            0.0092069200000000004,
            0,
            1
          ],
          "glossinessFactor": 0.53181800000000001,
          "specularFactor": [
            0,
            0,
            0
          ]
        }
      },
      "name": "Dome.belt"
    },
    {
      "doubleSided": true,
      "emissiveFactor": [
        0,
        0,
        0
      ],
      "extensions": {
        "KHR_materials_pbrSpecularGlossiness": {
          "diffuseFactor": [
            0.37517099999999998,
            0.32596000000000003,
            0.31861099999999998,
            1
          ],
          "glossinessFactor": 0,
          "specularFactor": [
            0,
            0,
            0
          ]
        }
      },
      "name": "Bottom"
    },
    {
      "doubleSided": true,
      "emissiveFactor": [
        0,
        0,
        0
      ],
      "extensions": {
        "KHR_materials_pbrSpecularGlossiness": {
          "diffuseFactor": [
            0.14996000000000001,
            0.49102099999999999,
            0.65140600000000004,
            1
          ],
          "glossinessFactor": 0.83181799999999995,
          "specularFactor": [
            0.38181799999999999,
            0.38181799999999999,
            0.38181799999999999
          ]
        }
      },
      "name": "Glass.mini"
    },
    {
      "doubleSided": true,
      "emissiveFactor": [
        0,
        0,
        0
      ],
      "extensions": {
        "KHR_materials_pbrSpecularGlossiness": {
          "diffuseFactor": [
            0.11082296074695121,
            0.097461316692073155,
            0.097461316692073155,
            1
          ],
          "glossinessFactor": 0.68464176829268297,
          "specularFactor": [
            0.54439786585365857,
            0.54439786585365857,
            0.54439786585365857
          ]
        }
      },
      "name": "Bottom.001"
    }
  ],
  "meshes": [
    {
      "primitives": [
        {
          "attributes": {
            "NORMAL": 1,
            "POSITION": 0,
            "TANGENT": 2,
            "TEXCOORD_0": 3
          },
          "indices": 4,
          "material": 0,
          "mode": 4
        }
      ]
    },
    {
      "primitives": [
        {
          "attributes": {
            "NORMAL": 6,
            "POSITION": 5,
            "TANGENT": 7,
            "TEXCOORD_0": 8
          },
          "indices": 9,
          "material": 1,
          "mode": 4
        }
      ]
    },
    {
      "primitives": [
        {
          "attributes": {
            "NORMAL": 11,
            "POSITION": 10,
            "TANGENT": 12,
            "TEXCOORD_0": 13
          },
          "indices": 14,
          "material": 2,
          "mode": 4
        }
      ]
    },
    {
      "primitives": [
        {
          "attributes": {
            "NORMAL": 16,
            "POSITION": 15,
            "TANGENT": 17,
            "TEXCOORD_0": 18
          },
          "indices": 19,
          "material": 3,
          "mode": 4
        }
      ]
    },
    {
      "primitives": [
        {
          "attributes": {
            "NORMAL": 21,
            "POSITION": 20,
            "TANGENT": 22,
            "TEXCOORD_0": 23
          },
          "indices": 24,
          "material": 4,
          "mode": 4
        }
      ]
    },
    {
      "primitives": [
        {
          "attributes": {
            "NORMAL": 26,
            "POSITION": 25,
            "TANGENT": 27,
            "TEXCOORD_0": 28
          },
          "indices": 29,
          "material": 5,
          "mode": 4
        }
      ]
    }
  ],
  "nodes": [
    {
      "children": [
        1
      ],
      "name": "RootNode (gltf orientation matrix)",
      "rotation": [
        -0.70710678118654746,
        -0,
        -0,
        0.70710678118654757
      ]
    },
    {
      "children": [
        2
      ],
      "name": "RootNode (model correction matrix)"
    },
    {
      "children": [
        3
      ],
      "name": "root"
    },
    {
      "children": [
        4
      ],
      "matrix": [
        1,
        0,
        0,
        0,
        0,
        2.2204460492503131e-16,
        1,
        0,
        0,
        -1,
        2.2204460492503131e-16,
        0,
        0,
        0,
        0,
        1
      ],
      "name": "GLTF_SceneRootNode"
    },
    {
      "children": [
        5,
        6,
        7,
        8,
        9,
        10
      ],
      "matrix": [
        2,
        0,
        0,
        0,
        -0,
        -0.48445892333984375,
        -0,
        -0,
        0,
        0,
        2,
        0,
        0,
        0,
        0,
        1
      ],
      "name": "ufo_0"
    },
    {
      "mesh": 0,
      "name": ""
    },
    {
      "mesh": 1,
      "name": ""
    },
    {
      "mesh": 2,
      "name": ""
    },
    {
      "mesh": 3,
      "name": ""
    },
    {
      "mesh": 4,
      "name": ""
    },
    {
      "mesh": 5,
      "name": ""
    }
  ],
  "scene": 0,
  "scenes": [
    {
      "name": "OSG_Scene",
      "nodes": [
        0
      ]
    }
  ]
}

